<svg xmlns:dc="http://purl.org/dc/elements/1.1/" xmlns:cc="http://creativecommons.org/ns#" xmlns:rdf="http://www.w3.org/1999/02/22-rdf-syntax-ns#" xmlns:svg="http://www.w3.org/2000/svg" xmlns="http://www.w3.org/2000/svg" xmlns:sodipodi="http://sodipodi.sourceforge.net/DTD/sodipodi-0.dtd" xmlns:inkscape="http://www.inkscape.org/namespaces/inkscape" version="1.1" x="0px" y="0px" width="235" height="158" viewBox="0 0 235 158" enable-background="new 0 0 681.304 347.518" xml:space="preserve" inkscape:version="0.48.4 r9939"><style>
	.style0{
		fill:	#484848;
	}
	.style1{
		font-size:	17.30015755px;
		fill:	#484848;
		font-family:	OpenSans;
	}
	.style2{
		fill:	#999999;
	}
	.style3{
		fill:	#484848;
		display:	inline;
	}
</style><metadata><rdf:RDF><cc:Work rdf:about=""><dc:format>image/svg+xml</dc:format><dc:type rdf:resource="http://purl.org/dc/dcmitype/StillImage"/><dc:title/></cc:Work></rdf:RDF></metadata><defs>
	

		
		
	
			
			
			
			
			
		
	

		
		
	
			
			
			
			
			
		</defs><g transform="matrix(0.34505289,0,0,0.34505289,-0.08626668,38.174168)">
		</g><g transform="matrix(0.34505289,0,0,0.34505289,-0.08626668,38.174168)">
		</g><g transform="matrix(0.34505289,0,0,0.34505289,-0.08626668,38.174168)">
	<g>
		<path d="m 299.8 131.7 15.6 -4.3 c 1.2 1.8 1.7 3.4 2.3 6.7 4.5 -4.4 10.1 -6.7 16.1 -6.7 5.4 0 9.9 1.8 13.4 5.4 0.9 0.9 1.3 1.4 2.6 3.2 6.1 -6.2 11.5 -8.6 18.7 -8.6 5.2 0 10.1 1.5 13 4.1 3.7 3.2 4.9 7.1 4.9 16.1 v 46.9 h -16.8 v -43.6 c 0 -7.9 -0.9 -9.4 -5.4 -9.4 -3.2 0 -7.7 2.2 -11.5 5.5 v 47.4 h -16.4 v -42.9 c 0 -8.3 -1.2 -10.2 -5.9 -10.2 -3.2 0 -7.6 1.7 -11.3 5 v 48.1 h -16.9 v -46 c 0 -9.5 -0.6 -13.7 -2.4 -16.9 z" inkscape:connector-curvature="0" class="style0"/>
		<path d="m 428.1 127.3 c 9.4 0 16.8 3.2 22.4 9.9 5.3 6.2 7.6 13.4 7.6 24.1 0 11.3 -2.6 19.1 -8.2 25.5 -5 5.7 -11.6 9.2 -21.8 9.2 -17.9 0 -29.6 -13.4 -29.6 -34.2 -0 -20.8 11.9 -34.6 29.6 -34.6 z m 0.3 12.8 c -4.1 0 -7.5 2.6 -8.9 6.7 -1.2 3.5 -1.8 8.1 -1.8 14.7 0 7.6 0.8 13.3 2.2 16.6 1.5 3.6 5.4 5.4 8.8 5.4 7.5 0 10.7 -6.7 10.7 -22.3 0 -8.9 -1.2 -14.7 -3.5 -17.7 -1.7 -2.2 -4.4 -3.5 -7.5 -3.5 z" inkscape:connector-curvature="0" class="style0"/>
		<path d="m 465.3 129 h 49 v 11.9 l -29.1 41.8 h 30.3 l -4.1 12 h -48.6 v -10.7 l 31.1 -42.8 h -28.5 v -12.1 z" inkscape:connector-curvature="0" class="style0"/>
		<path d="m 533.2 99.7 c 5.8 0 10.4 4.8 10.4 10.7 0 5.9 -4.8 10.7 -10.7 10.7 -5.8 0 -10.6 -4.8 -10.6 -10.7 0 -5.9 4.9 -10.7 10.8 -10.7 z m -8.9 30 17.3 -2.7 v 67.6 h -17.3 v -64.9 z" inkscape:connector-curvature="0" class="style0"/>
		<path d="m 573.3 99.2 c 0.6 3.6 0.9 7.9 0.9 17.1 v 51.4 c 0 11.3 0.1 12.9 1.2 14.7 0.6 1.2 2.1 1.8 3.5 1.8 0.6 0 1 0 1.9 -0.3 l 3 10.3 c -3 1.2 -6.6 1.8 -10.3 1.8 -7.3 0 -13.3 -3.5 -15.3 -9 -1.3 -3.4 -1.5 -5.4 -1.5 -14.8 v -49.3 c 0 -8.6 -0.3 -13.9 -0.9 -19.9 l 17.7 -4 z" inkscape:connector-curvature="0" class="style0"/>
		<path d="m 607.8 99.2 c 0.6 3.6 0.9 7.9 0.9 17.1 v 51.4 c 0 11.3 0.1 12.9 1.2 14.7 0.6 1.2 2.1 1.8 3.5 1.8 0.6 0 1 0 1.9 -0.3 l 3 10.3 c -3 1.2 -6.6 1.8 -10.3 1.8 -7.3 0 -13.3 -3.5 -15.3 -9 -1.3 -3.4 -1.5 -5.4 -1.5 -14.8 v -49.3 c 0 -8.6 -0.3 -13.9 -0.9 -19.9 l 17.7 -4 z" inkscape:connector-curvature="0" class="style0"/>
		<path d="m 624.3 136.5 c 4.3 -2.7 6.1 -3.6 10.7 -5.4 6.4 -2.7 12 -3.9 18 -3.9 11.1 0 18.7 4.1 21.3 11.5 0.9 2.7 1.2 4.8 1.2 11.9 l -0.4 22.2 c 0 0.4 0 0.8 0 1.2 0 7.1 1.2 9.8 6.2 13.5 l -9.2 10.6 c -4 -1.7 -7.6 -4.6 -9.3 -8 -2.5 2.3 -2.7 2.6 -4 3.5 -3.2 2.3 -7.9 3.6 -13.3 3.6 -14.7 0 -22.7 -7.5 -22.7 -20.6 0 -15.5 10.7 -22.7 31.7 -22.7 1.3 0 2.1 0 3.9 0.1 v -2.7 c 0 -7.4 -1.4 -9.8 -7.7 -9.8 -5.5 0 -12 2.7 -19.1 7.5 l -7.4 -12.4 z m 33.9 29.3 h -0.8 c -12 0 -16.1 2.2 -16.1 10.1 0 5.2 3.2 8.6 7.6 8.6 3.2 0 6.4 -1.7 9 -4.5 l 0.3 -14.2 z" inkscape:connector-curvature="0" class="style0"/>
	</g>
</g><g class="style1"><path d="m114.4 106.8 0 8c-0 1.4 -0.4 2.5 -1.3 3.3 -0.9 0.8 -2 1.2 -3.5 1.2 -1.5 0 -2.6 -0.4 -3.5 -1.2 -0.8 -0.8 -1.2 -1.9 -1.2 -3.3l0 -8 1.4 0 0 8.1c0 1 0.3 1.8 0.8 2.4 0.6 0.6 1.4 0.8 2.5 0.8 1 0 1.8 -0.3 2.4 -0.8 0.6 -0.6 0.8 -1.4 0.8 -2.4l0 -8 1.4 0" inkscape:connector-curvature="0" class="style1"/><path d="m123.8 119.2 0 -6c-0 -0.8 -0.2 -1.3 -0.5 -1.7 -0.3 -0.4 -0.9 -0.6 -1.6 -0.6 -1 0 -1.7 0.3 -2.1 0.8 -0.5 0.5 -0.7 1.4 -0.7 2.6l0 4.9 -1.4 0 0 -9.3 1.1 0 0.2 1.3 0.1 0c0.3 -0.5 0.7 -0.8 1.2 -1.1 0.5 -0.3 1.1 -0.4 1.7 -0.4 1.1 0 2 0.3 2.5 0.8 0.6 0.5 0.8 1.4 0.8 2.6l0 6 -1.4 0" inkscape:connector-curvature="0" class="style1"/><path d="m129.5 119.2 -1.4 0 0 -9.3 1.4 0 0 9.3m-1.5 -11.8c-0 -0.3 0.1 -0.6 0.2 -0.7 0.2 -0.2 0.4 -0.2 0.6 -0.2 0.2 0 0.4 0.1 0.6 0.2 0.2 0.2 0.2 0.4 0.2 0.7 -0 0.3 -0.1 0.6 -0.2 0.7 -0.2 0.2 -0.4 0.2 -0.6 0.2 -0.2 0 -0.4 -0.1 -0.6 -0.2 -0.2 -0.2 -0.2 -0.4 -0.2 -0.7" inkscape:connector-curvature="0" class="style1"/><path d="m135.4 118.2c0.2 0 0.5 -0 0.7 -0.1 0.2 -0 0.4 -0.1 0.5 -0.1l0 1.1c-0.2 0.1 -0.4 0.1 -0.7 0.2 -0.3 0.1 -0.6 0.1 -0.8 0.1 -1.8 0 -2.7 -0.9 -2.7 -2.8l0 -5.5 -1.3 0 0 -0.7 1.3 -0.6 0.6 -2 0.8 0 0 2.1 2.7 0 0 1.1 -2.7 0 0 5.4c0 0.6 0.1 1 0.4 1.3 0.3 0.3 0.6 0.4 1.1 0.4" inkscape:connector-curvature="0" class="style1"/><path d="m142.5 119.4c-1.4 0 -2.4 -0.4 -3.2 -1.3 -0.8 -0.8 -1.2 -2 -1.2 -3.5 0 -1.5 0.4 -2.7 1.1 -3.6 0.7 -0.9 1.7 -1.3 3 -1.3 1.2 0 2.1 0.4 2.8 1.1 0.7 0.8 1 1.8 1 3l0 0.9 -6.4 0c0 1.1 0.3 1.9 0.8 2.5 0.5 0.6 1.3 0.8 2.2 0.8 1 0 2 -0.2 3 -0.6l0 1.3c-0.5 0.2 -1 0.4 -1.4 0.5 -0.4 0.1 -1 0.1 -1.6 0.1m-0.4 -8.4c-0.7 0 -1.3 0.2 -1.8 0.7 -0.4 0.5 -0.7 1.2 -0.8 2l4.8 0c-0 -0.9 -0.2 -1.6 -0.6 -2 -0.4 -0.5 -1 -0.7 -1.7 -0.7" inkscape:connector-curvature="0" class="style1"/><path d="m154.6 118 -0.1 0c-0.6 0.9 -1.6 1.4 -2.9 1.4 -1.2 0 -2.2 -0.4 -2.8 -1.2 -0.7 -0.8 -1 -2 -1 -3.5 0 -1.5 0.3 -2.7 1 -3.6 0.7 -0.8 1.6 -1.3 2.8 -1.3 1.3 0 2.2 0.5 2.9 1.4l0.1 0 -0.1 -0.7 -0 -0.7 0 -3.8 1.4 0 0 13.1 -1.1 0 -0.2 -1.2m-2.8 0.2c1 0 1.7 -0.3 2.1 -0.8 0.4 -0.5 0.7 -1.4 0.7 -2.5l0 -0.3c0 -1.3 -0.2 -2.2 -0.7 -2.8 -0.4 -0.6 -1.1 -0.8 -2.1 -0.8 -0.8 0 -1.5 0.3 -1.9 1 -0.4 0.6 -0.7 1.5 -0.7 2.7 -0 1.2 0.2 2.1 0.7 2.7 0.4 0.6 1.1 0.9 1.9 0.9" inkscape:connector-curvature="0" class="style1"/><path d="m172.5 119.2 -1.7 0 -4.5 -6 -1.3 1.1 0 4.8 -1.4 0 0 -12.4 1.4 0 0 6.1 5.6 -6.1 1.7 0 -5 5.4 5.2 7" inkscape:connector-curvature="0" class="style1"/><path d="m175.4 119.2 -1.4 0 0 -9.3 1.4 0 0 9.3m-1.5 -11.8c-0 -0.3 0.1 -0.6 0.2 -0.7 0.2 -0.2 0.4 -0.2 0.6 -0.2 0.2 0 0.4 0.1 0.6 0.2 0.2 0.2 0.2 0.4 0.2 0.7 -0 0.3 -0.1 0.6 -0.2 0.7 -0.2 0.2 -0.4 0.2 -0.6 0.2 -0.2 0 -0.4 -0.1 -0.6 -0.2 -0.2 -0.2 -0.2 -0.4 -0.2 -0.7" inkscape:connector-curvature="0" class="style1"/><path d="m184.7 119.2 0 -6c-0 -0.8 -0.2 -1.3 -0.5 -1.7 -0.3 -0.4 -0.9 -0.6 -1.6 -0.6 -1 0 -1.7 0.3 -2.1 0.8 -0.5 0.5 -0.7 1.4 -0.7 2.6l0 4.9 -1.4 0 0 -9.3 1.1 0 0.2 1.3 0.1 0c0.3 -0.5 0.7 -0.8 1.2 -1.1 0.5 -0.3 1.1 -0.4 1.7 -0.4 1.1 0 2 0.3 2.5 0.8 0.6 0.5 0.8 1.4 0.8 2.6l0 6 -1.4 0" inkscape:connector-curvature="0" class="style1"/><path d="m196.6 109.9 0 0.9 -1.7 0.2c0.2 0.2 0.3 0.5 0.4 0.8 0.1 0.3 0.2 0.7 0.2 1.1 -0 0.9 -0.3 1.6 -0.9 2.2 -0.6 0.5 -1.5 0.8 -2.6 0.8 -0.3 0 -0.5 -0 -0.8 -0.1 -0.6 0.3 -0.9 0.7 -0.9 1.2 0 0.3 0.1 0.4 0.3 0.6 0.2 0.1 0.6 0.2 1.1 0.2l1.6 0c1 0 1.8 0.2 2.3 0.6 0.5 0.4 0.8 1 0.8 1.8 -0 1 -0.4 1.8 -1.2 2.3 -0.8 0.5 -2 0.8 -3.6 0.8 -1.2 0 -2.1 -0.2 -2.8 -0.7 -0.7 -0.5 -1 -1.1 -1 -1.9 0 -0.6 0.2 -1.1 0.5 -1.5 0.4 -0.4 0.9 -0.7 1.5 -0.8 -0.2 -0.1 -0.4 -0.3 -0.6 -0.5 -0.2 -0.2 -0.2 -0.5 -0.2 -0.8 0 -0.3 0.1 -0.6 0.3 -0.9 0.2 -0.3 0.5 -0.5 0.9 -0.7 -0.5 -0.2 -0.9 -0.5 -1.2 -1 -0.3 -0.5 -0.4 -1 -0.4 -1.6 0 -1 0.3 -1.8 0.9 -2.3 0.6 -0.6 1.5 -0.8 2.6 -0.8 0.5 0 0.9 0.1 1.3 0.2l3.2 0m-7.4 10.8c0 0.5 0.2 0.9 0.6 1.1 0.4 0.3 1 0.4 1.8 0.4 1.2 0 2 -0.2 2.6 -0.5 0.6 -0.3 0.9 -0.8 0.9 -1.4 -0 -0.5 -0.2 -0.9 -0.5 -1 -0.3 -0.2 -0.9 -0.3 -1.7 -0.3l-1.7 0c-0.6 0 -1.1 0.2 -1.5 0.5 -0.4 0.3 -0.5 0.7 -0.5 1.3m0.8 -7.8c0 0.6 0.2 1.1 0.5 1.5 0.4 0.3 0.9 0.5 1.5 0.5 1.4 0 2.1 -0.7 2.1 -2 -0 -1.4 -0.7 -2.1 -2.1 -2.1 -0.7 0 -1.2 0.2 -1.5 0.5 -0.4 0.4 -0.5 0.9 -0.5 1.6" inkscape:connector-curvature="0" class="style1"/><path d="m204.8 118 -0.1 0c-0.6 0.9 -1.6 1.4 -2.9 1.4 -1.2 0 -2.2 -0.4 -2.8 -1.2 -0.7 -0.8 -1 -2 -1 -3.5 0 -1.5 0.3 -2.7 1 -3.6 0.7 -0.8 1.6 -1.3 2.8 -1.3 1.3 0 2.2 0.5 2.9 1.4l0.1 0 -0.1 -0.7 -0 -0.7 0 -3.8 1.4 0 0 13.1 -1.1 0 -0.2 -1.2m-2.8 0.2c1 0 1.7 -0.3 2.1 -0.8 0.4 -0.5 0.7 -1.4 0.7 -2.5l0 -0.3c-0 -1.3 -0.2 -2.2 -0.7 -2.8 -0.4 -0.6 -1.1 -0.8 -2.1 -0.8 -0.8 0 -1.5 0.3 -1.9 1 -0.4 0.6 -0.7 1.5 -0.7 2.7 0 1.2 0.2 2.1 0.7 2.7 0.4 0.6 1.1 0.9 1.9 0.9" inkscape:connector-curvature="0" class="style1"/><path d="m217.1 114.6c-0 1.5 -0.4 2.7 -1.1 3.5 -0.8 0.8 -1.8 1.3 -3.2 1.3 -0.8 0 -1.6 -0.2 -2.2 -0.6 -0.6 -0.4 -1.1 -0.9 -1.5 -1.7 -0.3 -0.7 -0.5 -1.6 -0.5 -2.6 -0 -1.5 0.4 -2.7 1.1 -3.5 0.8 -0.8 1.8 -1.3 3.1 -1.3 1.3 0 2.3 0.4 3.1 1.3 0.8 0.9 1.1 2 1.1 3.5m-7.1 0c0 1.2 0.2 2.1 0.7 2.7 0.5 0.6 1.2 0.9 2.1 0.9 0.9 0 1.6 -0.3 2.1 -0.9 0.5 -0.6 0.7 -1.5 0.7 -2.7 -0 -1.2 -0.2 -2.1 -0.7 -2.7 -0.5 -0.6 -1.2 -0.9 -2.1 -0.9 -0.9 0 -1.6 0.3 -2.1 0.9 -0.5 0.6 -0.7 1.5 -0.7 2.7" inkscape:connector-curvature="0" class="style1"/><path d="m231.3 119.2 0 -6c-0 -0.7 -0.2 -1.3 -0.5 -1.7 -0.3 -0.4 -0.8 -0.6 -1.5 -0.6 -0.9 0 -1.5 0.3 -1.9 0.8 -0.4 0.5 -0.6 1.3 -0.6 2.3l0 5.2 -1.4 0 0 -6c-0 -0.7 -0.2 -1.3 -0.5 -1.7 -0.3 -0.4 -0.8 -0.6 -1.5 -0.6 -0.9 0 -1.5 0.3 -1.9 0.8 -0.4 0.5 -0.6 1.4 -0.6 2.6l0 4.9 -1.4 0 0 -9.3 1.1 0 0.2 1.3 0.1 0c0.3 -0.5 0.6 -0.8 1.1 -1.1 0.5 -0.3 1 -0.4 1.6 -0.4 1.4 0 2.4 0.5 2.8 1.6l0.1 0c0.3 -0.5 0.7 -0.9 1.2 -1.1 0.5 -0.3 1.1 -0.4 1.8 -0.4 1 0 1.8 0.3 2.3 0.8 0.5 0.5 0.8 1.4 0.8 2.6l0 6 -1.4 0" inkscape:connector-curvature="0" class="style1"/></g><g transform="matrix(0.34505289,0,0,0.34505289,-0.08626668,38.174168)"><path d="m 106.2 134.2 c 1.6 15.7 20.3 23.9 12 43 -10.5 -0.5 -7.7 12.3 -18 12 10.3 15.8 9.4 43.9 0 60 3.1 0.2 1.7 5 2 8 -9.4 -0.2 -16.2 2.4 -28 2 -1.6 8.4 -12.5 11.8 -19 12 -7.1 13 -24.2 9.9 -35 14 -2.2 -0.8 0.4 -6.4 -2 -7 -1.3 1.8 -8.3 3.7 -9 0 -1 -4 3 -3 2 -7 -7.5 1.4 -6.5 -6.6 -4 -10 -4.3 -0.1 -4.6 1.5 -7 -1 0 -1 0 -2 0 -3 4.4 -3.1 10.3 -9.4 17 -7 0.8 -6.8 -0.2 -6.2 -1 -12 6 -6 15.2 -8.8 14 -22 -6.3 3 -19.4 -5 -20 -9 -1.2 -7.3 8.2 -6.7 8 -15 -4.1 -0.6 -7.1 -2.2 -8 -6 3.8 -6.2 -1.1 -11.4 4 -15 10.6 -2.5 21.1 2 32 2 -1.2 -6.6 5.5 -5.1 7 -9 -7.5 0.8 -11.3 -2.1 -10 -10 2.1 -1.9 5.6 -2.4 8 -4 -4.7 -14.5 12.4 -16.5 21 -16 2.2 -2.1 2.6 -6.1 5 -8 3.5 2.8 10.8 1.9 9 10 6.9 -0.4 11.6 -3.1 20 -2 z" inkscape:connector-curvature="0" class="style2"/><g><g><path d="m 188.5 -20.1 c -1.2 5.6 -6.9 -0 -10 1.7 -2.7 0.9 -3.7 -3.7 -3.7 -3.7 -4.2 3.2 -3.4 -7.9 1.1 -6.8 3.8 -0.2 5.3 4.5 3.1 6.7 3.8 -0.6 6.1 2 9.5 2.2 z" inkscape:connector-curvature="0" class="style3"/><path d="m 176.3 -15.4 c 0.7 2.6 -1 4.6 -3.4 2.4 -3 -1.9 -0.6 -8.1 2.3 -4 0.4 0.5 0.8 1 1.1 1.6 z" inkscape:connector-curvature="0" class="style3"/><path d="m 234.2 -108.1 c -2.3 1.3 -5.3 2.5 -3.4 6.1 2.3 3.4 3.8 -3.8 3.8 -5.5 l -0.4 -0.6 0 0 z" inkscape:connector-curvature="0" class="style3"/><path d="m 224.6 -90.4 c -1.6 -2.4 -4 5.2 -3.1 -0 1 -2.5 0.3 -9.8 -3.1 -5 -0.1 1.5 0.9 4.2 -1.1 1.8 -3.7 -0 -0.4 4 1.5 4 3.3 2.7 3.4 8.3 -2 6.8 -4.2 -0.5 -5 4.1 -0.6 4 1.2 2.2 3.9 3.4 4 -0.1 2.6 -1.5 2.9 4.3 2.6 6.2 -0.5 3 -3.9 7.6 -0.3 9.7 0.9 -2.9 1.7 -6 2.5 -9 1.3 -2.6 -0.3 -6.8 0.3 -8.3 2.4 -1.3 1 -5.3 1.9 -7.3 1.4 -2.7 -3.5 2.1 -2.2 -1.5 0.1 -0.4 0.3 -1.2 -0.3 -1.4 z" inkscape:connector-curvature="0" class="style3"/><path d="m 229.3 -102.7 c -4 -0.2 -3.6 5.9 -4.5 8.5 1.4 4.5 6.4 -1.4 3.7 -3.8 0.7 -1.4 1.5 -3.1 0.8 -4.6 z" inkscape:connector-curvature="0" class="style3"/></g><g class="style0"><path d="m 143.2 168.2 c 6.1 6.4 -1.3 20.2 -8 17 -0.5 -8.9 4.3 -12.3 8 -17 z" inkscape:connector-curvature="0" class="style0"/><path d="m 290.8 235.3 c 0 3.7 0 7.3 0 11 -0.3 0 -0.7 0 -1 0 -1.2 7.1 -1.7 15 -8 17 4 8.5 -7.8 6.2 -11 9 2.4 -0.6 5.1 -2 5 2 0.8 6.5 -6.1 5.3 -6 11 8 1.3 9.8 -3.5 17 -3 4.2 17.6 -16.7 23.7 -28 32 -11.1 -7.5 -32 5.3 -37 -3 -0.7 6 -7.8 5.5 -14 6 -1.7 1.3 -0 6 -3 6 -13.5 -1.2 -26 -9 -37 1 0.5 7.9 -2 12.7 -7 15 -8.3 -11.8 -31.5 -7.4 -34 8 -1.3 0 -2.7 0 -4 0 -1.3 -6.8 -6.8 -2.1 -12 -2 0 -1.4 -0.5 -2.2 -1 -3 1.6 -5.3 7.1 -6.9 13 -8 4.1 -7.6 9.9 -13.4 17 -18 0.4 -4.3 -1 -10.3 1 -13 3.5 -0.8 3.8 1.5 7 1 -1.8 -16.6 22.3 -5 31 -9 -1 -5.3 1.7 -7 3 -10 -7 1.4 -4.8 2.9 -10 6 -7.5 0.5 -10.4 -3.6 -13 -8 -2.9 1.4 -6 2.7 -11 2 1.2 -4.9 -2.3 -5.1 -3 -8 -6.2 0.5 -8.5 4.9 -14 6 -4.4 -1.1 -7.8 -5.7 -5 -11 -1.8 -0.2 -5 1 -4 -2 0 -0.7 0 -1.3 0 -2 13.6 -8.2 37.9 -10.2 28 -36 -7.1 -1.1 -6.4 5.6 -13 5 -4.6 -8.5 7.2 -8.6 8 -15 -4.1 -0.6 -6.1 -11.6 -2 -14 5.8 1.5 8.1 3.6 10 7 5.3 -2.4 14.8 -4.5 20 -2 3 -10.8 2.4 -22.5 6 -34 -3.5 1.5 -2.9 7.1 -9 6 1.1 -7.7 -7.2 -10.9 -8 -18 -0.8 -7.3 6.3 -12.9 4 -18 -4.4 2.6 -7.1 6.9 -12 9 -3.9 0.2 -3.7 -3.6 -8 -3 -0 2.6 0.6 5.9 -2 6 -5.7 -0.3 -5.9 -6.1 -11 -7 -0.6 3.7 3.1 6.9 -2 7 -2.2 -4.5 -6.4 -6.9 -6 -14 6.8 -4.5 8.3 -14.4 13 -21 -5.8 -2.2 -2.8 -13.2 -10 -14 0.7 4.6 -3.1 1.6 -4 4 3.7 1.8 8.8 11 4 15 -6 2.3 -4.1 -8.5 -7 -6 2.3 2.4 -0.8 7.8 -5 7 -3.5 -8.4 3.3 -15.4 -1 -23 -1.9 3.4 -4.1 8.6 -7 8 2.4 2.1 -1 7.7 -5 9 -3.7 -1.8 0.2 -6 -2 -8 0.3 1.2 -2.9 3.4 -3 1 -1.1 -7.1 3.8 -8.2 7 -11 2.3 -0.3 1.1 2.9 3 3 1.8 -3.7 5.5 -13.4 10 -8 -1 -4.5 4.7 -13.1 3 -18 -4.8 0.5 -3.4 7.2 -5 11 -3.2 -1.1 -13.5 4.3 -15 -2 -0.9 -2.5 3.5 -0.5 4 -4 -3.5 -7.6 -0.6 -14.9 8 -16 -1.8 -2.2 0.1 -6.5 -1 -7 -3 -2 -12.4 -6.3 -13 -14 0.1 1.8 -1 2.3 -3 2 -3.6 -6.5 0.7 -9.7 2 -13 2.2 -0.4 2.5 6 4 3 -1.4 -1.9 -1.2 -5.6 3 -6 5.3 1.8 4 9.4 3 15 0.8 0.9 6.4 2.1 7 0 -4.6 -6.4 0.7 -15.3 0 -22 4.5 -1.6 7 0.8 10 -2 -3.8 -0.8 -2 -7.1 1 -7 -2.2 -0.1 -2.1 -2.5 -2 -5 8.2 -2.4 2.6 -12.5 9 -16 6.5 3.3 8.7 -0.1 13 4 4.9 -3.5 14.3 -2.4 19 -6 1.7 0 3.3 0 5 0 3.3 1.7 1.5 8.5 3 12 -3.3 9.7 -13.3 12.7 -19 20 -0.4 2.8 3.7 -2.5 4 1 2.3 6 -8.8 8 -4 10 13.7 -6.4 22.8 -3.1 41 -5 9 17.5 -6 41.5 -16 53 2.2 0.8 7.3 0.2 7 6 -1.8 5 -18.7 5.1 -14 10 5.8 0.8 5 -5 11 -4 2.4 3.8 9.3 3.6 13 7 2.2 2 1.6 5.6 4 9 3.1 4.4 6.7 5.2 8 9 2.4 6.7 2.6 24.3 8 21 -2.3 4.2 0.4 7.9 2 11 16.7 -1.7 17.4 12.6 26 19 -0.6 2.1 -2.9 3.2 -1 5 1.4 5.8 9.2 9.8 6 17 5.8 3.1 9 9.5 8 17 -0.6 4.7 -6.9 6.2 -4 10 8 0.6 12.3 -10.1 27 -6 5.3 2.6 8.7 7.3 11 13 z" inkscape:connector-curvature="0" class="style0"/><path d="m 106.8 134.3 c 1.6 15.7 20.3 23.9 12 43 -8.7 -1.7 -6.6 7.4 -12 9 -5.2 -1.9 -8 -3.4 -13 -1 2.1 -7.9 -6.9 -6.2 -5 -13 -1.9 1.9 -1.8 -0.6 -5 0 -4 1.3 -2.2 8.4 -5 11 -9.2 -1.8 -16.8 -5.2 -20 -13 2 -4.5 10.5 -8 5 -14 1.6 1.4 4.7 1.3 6 3 1.3 -2.7 8.6 -5.1 5 -12 8.5 -3.1 14 -16.3 32 -13 z" inkscape:connector-curvature="0" class="style0"/><path d="m 107.8 7.3 c 2.1 5.1 -0.1 9.1 1 14 -1.2 0.8 -2.7 1.3 -5 1 0.9 13.4 -9 9.8 -13 18 -1.9 -1.1 -4.8 -1.2 -4 -5 -0.9 -3.2 3.3 -1.4 3 -4 -3.9 -2 -1.5 -10.2 -1 -14 2.2 -0.2 3.2 0.8 3 3 4.5 -5.2 7.5 -11.8 16 -13 z" inkscape:connector-curvature="0" class="style0"/><path d="m 87.8 39.3 c 0.3 10 -4.4 12.7 -3 26 -5.7 -1.7 -3.3 4.7 -6 6 -0.8 -0.5 -1.6 -1.1 -3 -1 0 -1.7 0 -3.3 0 -5 2.1 -0.6 3.2 -2.9 5 -1 -3.4 -6.5 1.4 -19.4 -3 -22 1.1 -3.2 5.5 -3.2 10 -3 z" inkscape:connector-curvature="0" class="style0"/></g><path d="m 227.4 318.1 c -2 0.3 -2.2 2.9 -3.9 3.6 -2 0.6 -2.9 -1.7 -4.6 -2.2 -0.8 -0.6 -2.5 -0.6 -2.9 -1.3 0.5 -1.6 2.6 -1.2 3.7 -2 0.9 -1.4 2.7 -1.7 4.1 -0.8 1.2 0.8 4 0.6 3.6 2.7 z" inkscape:connector-curvature="0" class="style3"/></g></g></svg>